PathFileType	4	(x/y/z)	S06_M20_T25
DataRate	CameraRate	NumFrames	NumMarkers	Units	OrigDataRate	OrigDataStartFrame	OrigNumFrames
240	240	4	51	mm	240	185	492
Frame#	Time	Sternum			R.Acromium			L.Acromium			Top.Head			R.ASIS			L.ASIS			R.PSIS			L.PSIS			R.Great.Tro			L.Great.Tro			R.Iliac.Crest			L.Iliac.Crest			V.Sacral			R.Thigh.Upper.Post			R.Thigh.Lower.Ant			R.Thigh.Lower.Post			R.Thigh.Upper.Ant			R.Knee.Lat			R.Knee.Med			R.Shank.Upper.Post			R.Shank.Lower.Ant			R.Shank.Lower.Post			R.Shank.Upper.Ant			R.Ankle.Lat			R.Ankle.Med			R.Heel.Upper			R.Heel.Med			R.Heel.Lat			R.Toe.Lat			R.Toe.Med			R.Toe.Tip			L.Thigh.Upper.Post			L.Thigh.Lower.Ant			L.Thigh.Lower.Post			L.Thigh.Upper.Ant			L.Knee.Lat			L.Knee.Med			L.Shank.Upper.Post			L.Shank.Lower.Ant			L.Shank.Lower.Post			L.Shank.Upper.Ant			L.Ankle.Lat			L.Ankle.Med			L.Heel.Upper			L.Heel.Med			L.Heel.Lat			L.Toe.Lat			L.Toe.Med			L.Toe.Tip			Cervical.Spine			Back			
		X1	Y1	Z1	X2	Y2	Z2	X3	Y3	Z3	X4	Y4	Z4	X5	Y5	Z5	X6	Y6	Z6	X7	Y7	Z7	X8	Y8	Z8	X9	Y9	Z9	X10	Y10	Z10	X11	Y11	Z11	X12	Y12	Z12	X13	Y13	Z13	X14	Y14	Z14	X15	Y15	Z15	X16	Y16	Z16	X17	Y17	Z17	X18	Y18	Z18	X19	Y19	Z19	X20	Y20	Z20	X21	Y21	Z21	X22	Y22	Z22	X23	Y23	Z23	X24	Y24	Z24	X25	Y25	Z25	X26	Y26	Z26	X27	Y27	Z27	X28	Y28	Z28	X29	Y29	Z29	X30	Y30	Z30	X31	Y31	Z31	X32	Y32	Z32	X33	Y33	Z33	X34	Y34	Z34	X35	Y35	Z35	X36	Y36	Z36	X37	Y37	Z37	X38	Y38	Z38	X39	Y39	Z39	X40	Y40	Z40	X41	Y41	Z41	X42	Y42	Z42	X43	Y43	Z43	X44	Y44	Z44	X45	Y45	Z45	X46	Y46	Z46	X47	Y47	Z47	X48	Y48	Z48	X49	Y49	Z49	X50	Y50	Z50	X51	Y51	Z51	

185	0.76667	-545.7	1278.8	297.6	-682.87	1475.5	470.93	-689.39	1483	119.94	-619.35	1795.1	301.39	-575.56	1051	418.8	-569.69	1034.6	165.94	NaN	NaN	NaN	-773.39	1058	245.85	-624.15	975.43	471.52	-681.52	960.5	114.92	-665.92	1115.6	451.52	-642.6	1105.9	128.92	-787.2	1022.3	290.28	-572.92	728.3	453.37	-503.99	662.62	411.95	-568.44	641.34	429.66	-505.34	751.58	432.9	-521.83	540.43	413.06	-525.89	548.09	284.53	-533.67	307.1	402.56	-465.2	253.14	378.3	-527.56	231.05	384.53	-473.15	327.79	395	-478.84	106.32	352.81	-462.42	122.83	269.77	-533.41	70.28	295.76	-520.79	42.423	263.48	-525.13	36.171	327.92	-348.51	41.263	372.78	-324.57	66.899	257.57	-261.85	87.561	306.16	-688.44	708.54	119.08	-644.8	613.45	154.16	-719.53	624.14	130.94	-617.06	703.73	136.75	-766.29	537.84	146.37	-707.66	516.16	253.24	-949.58	402.2	173.72	-948.19	314.45	163.9	-1001.6	353.89	193.85	-899.18	364.62	150.02	-1065.1	219.2	188.58	-1034.4	222.07	273.79	-1124.7	261.74	239.32	-1142.1	247.87	275.57	-1147.5	243.28	213.92	-1079.3	79.986	178.59	-1051.9	77.303	293.77	-1009	33.642	241.31	-738.65	1532.2	296.62	-787.85	1256.4	288.64
186	0.77083	-540.01	1279.4	297.83	-676.91	1476	471.34	-683.86	1483.6	120.38	-613.78	1795.6	301.88	-569.86	1051.8	419.38	-564.03	1035	166.53	NaN	NaN	NaN	-767.72	1058.3	246.18	-618.65	976.17	472.05	-675.31	960.5	115.53	-660.31	1116.3	451.85	-636.97	1106.3	129.3	-781.55	1022.8	290.66	-567.68	728.83	453.95	-498.77	663.01	412.69	-563.32	641.9	430.22	-500.01	751.96	433.75	-517.05	540.77	413.48	-520.44	548.74	285.07	-530.68	307.51	402.84	-462.71	252.99	378.5	-525.27	231.43	384.69	-469.98	327.67	395.28	-477.83	106.37	352.8	-461.32	122.77	269.82	-532.97	70.646	295.84	-520.54	42.735	263.54	-524.84	36.479	327.97	-348.1	40.405	372.76	-323.99	65.349	257.17	-261	85.297	305.64	-679.59	707.97	118.72	-634.9	613.29	153.66	-709.72	623.21	130.35	-608.14	703.9	136.56	-755.63	536.8	145.38	-697.01	515.09	252.38	-939.75	403.32	172.39	-939.48	315.52	162.82	-992.35	355.64	192.52	-889.76	365.09	149.03	-1057.4	221.87	187.44	-1027	224.46	272.83	-1115.4	266.45	237.91	-1133.2	253.22	274.18	-1138.7	248.54	212.56	-1075.2	82.837	178.03	-1048	79.754	293.05	-1006.8	33.116	240.81	-732.97	1532.7	297.12	-782.13	1256.9	289.04
187	0.775	-534.35	1279.9	298.06	-670.99	1476.6	471.74	-678.33	1484.3	120.8	-608.22	1796.1	302.37	-564.19	1052.5	419.97	-558.42	1035.5	167.12	NaN	NaN	NaN	-762.11	1058.7	246.52	-613.19	976.86	472.58	-669.1	960.52	116.14	-654.74	1117	452.2	-631.4	1106.7	129.68	-775.94	1023.2	291.05	-562.54	729.32	454.51	-493.65	663.35	413.42	-558.3	642.43	430.74	-494.77	752.28	434.59	-512.37	541.07	413.87	-515.11	549.36	285.56	-527.79	307.92	403.05	-460.3	252.85	378.65	-523.06	231.81	384.77	-466.89	327.55	395.5	-476.87	106.44	352.75	-460.27	122.71	269.82	-532.56	70.99	295.9	-520.31	43.016	263.58	-524.57	36.784	328.01	-347.71	39.651	372.73	-323.46	63.859	256.74	-260.22	83.128	305.08	-670.65	707.42	118.36	-624.94	613.19	153.27	-699.82	622.31	129.77	-599.18	704.12	136.48	-744.86	535.78	144.42	-686.35	514.12	251.62	-929.73	404.41	171.03	-930.54	316.56	161.76	-982.92	357.36	191.16	-880.14	365.53	148.06	-1049.6	224.51	186.3	-1019.4	226.84	271.89	-1105.9	271.02	236.49	-1124.2	258.41	272.76	-1129.8	253.65	211.16	-1070.7	85.732	177.42	-1043.8	82.232	292.31	-1004.2	32.675	240.28	-727.31	1533.2	297.62	-776.46	1257.5	289.43
188	0.77917	-528.74	1280.5	298.28	-665.1	1477.1	472.13	-672.82	1484.9	121.22	-602.68	1796.6	302.85	-558.56	1053.2	420.57	-552.86	1035.9	167.71	NaN	NaN	NaN	-756.55	1059	246.88	-607.77	977.52	473.09	-662.89	960.54	116.75	-649.19	1117.7	452.55	-625.89	1107.1	130.08	-770.38	1023.6	291.46	-557.51	729.78	455.04	-488.61	663.63	414.12	-553.39	642.94	431.21	-489.62	752.55	435.4	-507.79	541.35	414.22	-509.91	549.92	285.99	-524.99	308.31	403.19	-457.98	252.7	378.75	-520.93	232.18	384.79	-463.91	327.42	395.68	-475.95	106.53	352.64	-459.28	122.65	269.76	-532.18	71.311	295.92	-520.1	43.267	263.6	-524.31	37.086	328.03	-347.36	38.994	372.69	-322.96	62.425	256.29	-259.51	81.051	304.5	-661.62	706.9	118.01	-614.92	613.15	152.97	-689.82	621.45	129.23	-590.16	704.39	136.5	-733.98	534.8	143.5	-675.7	513.25	250.97	-919.56	405.47	169.64	-921.38	317.57	160.74	-973.32	359.04	189.77	-870.33	365.97	147.13	-1041.5	227.11	185.16	-1011.6	229.22	270.97	-1096.3	275.42	235.07	-1115.1	263.4	271.31	-1120.6	258.59	209.72	-1065.8	88.646	176.76	-1039.2	84.721	291.54	-1001.3	32.342	239.75	-721.67	1533.7	298.09	-770.83	1258	289.81
